<svg width="22" height="22" viewBox="0 0 22 22" fill="none" xmlns="http://www.w3.org/2000/svg">
<rect width="22" height="22" fill="#F5F5F5"/>
<g id="Yomi webapp design">
<rect width="460" height="1161" transform="translate(-368.375 -1078)" fill="#EAF9F6"/>
<g id="Container" clip-path="url(#clip0_8_2)">
<rect width="447" height="1161" transform="translate(-361.875 -1078)" fill="#EAF9F6"/>
<g id="Container_2">
<mask id="path-1-inside-1_8_2" fill="white">
<path d="M-361.875 -27H71.125V83H-361.875V-27Z"/>
</mask>
<path d="M-361.875 -27H71.125V83H-361.875V-27Z" fill="white"/>
<path d="M-361.875 -27V-26H71.125V-27V-28H-361.875V-27Z" fill="#2DBC9E" fill-opacity="0.2" mask="url(#path-1-inside-1_8_2)"/>
<g id="Button">
<g id="Container_3">
<g id="Icon">
<path id="Vector" d="M17.4167 19.25V17.4167C17.4167 16.4442 17.0304 15.5116 16.3428 14.8239C15.6551 14.1363 14.7225 13.75 13.75 13.75H8.25004C7.27758 13.75 6.34495 14.1363 5.65732 14.8239C4.96968 15.5116 4.58337 16.4442 4.58337 17.4167V19.25" stroke="#0D3D35" stroke-width="1.65" stroke-linecap="round" stroke-linejoin="round"/>
<path id="Vector_2" d="M11 10.0833C13.0251 10.0833 14.6667 8.44171 14.6667 6.41667C14.6667 4.39162 13.0251 2.75 11 2.75C8.975 2.75 7.33337 4.39162 7.33337 6.41667C7.33337 8.44171 8.975 10.0833 11 10.0833Z" stroke="#0D3D35" stroke-width="1.65" stroke-linecap="round" stroke-linejoin="round"/>
</g>
</g>
</g>
</g>
</g>
</g>
<defs>
<clipPath id="clip0_8_2">
<rect width="447" height="1161" fill="white" transform="translate(-361.875 -1078)"/>
</clipPath>
</defs>
</svg>
