<svg width="118" height="38" viewBox="0 0 118 38" fill="none" xmlns="http://www.w3.org/2000/svg">
<rect width="118" height="38" fill="#F5F5F5"/>
<g id="Yomi webapp design">
<rect width="460" height="1161" transform="translate(-26.5 -48)" fill="#EAF9F6"/>
<g id="Container" clip-path="url(#clip0_8_2)">
<rect width="447" height="1161" transform="translate(-20 -48)" fill="#EAF9F6"/>
<g id="Container_2">
<rect width="447" height="98" transform="translate(-20 -48)" fill="#EAF9F6"/>
<g id="Icon" clip-path="url(#clip1_8_2)">
<path id="Vector" d="M69.061 22.2428C67.0228 22.2428 66.0037 21.0979 66.0037 18.808C66.0037 17.7511 66.2552 16.644 66.7586 15.4865C67.2618 14.3289 67.9287 13.2595 68.759 12.2781C69.5895 11.2716 70.5079 10.4537 71.5145 9.82466C72.5461 9.19557 73.5905 8.88103 74.6473 8.88103C75.5784 8.88103 76.2577 9.23332 76.6855 9.9379C77.1133 10.6425 77.3273 11.4226 77.3273 12.2781C77.3273 13.4105 77.1007 14.568 76.6478 15.7507C76.1948 16.9081 75.5784 17.9777 74.7983 18.959C74.0183 19.9404 73.1375 20.733 72.1561 21.3369C71.1747 21.9409 70.143 22.2428 69.061 22.2428ZM69.0232 21.035C69.1742 21.035 69.2622 21.0225 69.2875 20.9973C70.2688 20.8715 71.1747 20.5192 72.0051 19.9404C72.8355 19.3616 73.5527 18.6445 74.1566 17.7889C74.7857 16.9081 75.2638 15.9646 75.5909 14.958C75.918 13.9515 76.0816 12.9576 76.0816 11.9761C76.0816 11.3973 75.918 10.9444 75.5909 10.6173C75.2638 10.2902 74.8486 10.1266 74.3454 10.1266C73.6156 10.1266 72.8355 10.4286 72.0051 11.0325C71.1999 11.6364 70.4325 12.4039 69.7027 13.335C68.9981 14.266 68.4193 15.2474 67.9663 16.2791C67.5135 17.2857 67.287 18.1916 67.287 18.9968C67.287 20.3556 67.8657 21.035 69.0232 21.035Z" fill="#4BC5AB"/>
<path id="Vector_2" d="M50.38 34.9253C48.8451 34.9253 48.0776 34.0194 48.0776 32.2076C48.0776 30.6726 48.4047 29.188 49.059 27.7536C49.1597 27.5021 49.3232 27.3762 49.5497 27.3762C50.0026 27.3762 50.2291 27.5775 50.2291 27.9802C50.2291 28.0809 50.1913 28.2066 50.1158 28.3576C50.0656 28.5337 50.0026 28.7225 49.9271 28.9237C49.751 29.4019 49.6126 29.9052 49.5119 30.4336C49.4112 30.962 49.3609 31.5156 49.3609 32.0944C49.3609 32.7486 49.449 33.189 49.6251 33.4154C49.8013 33.642 50.0278 33.7552 50.3046 33.7552C50.9588 33.7552 51.7263 33.4532 52.607 32.8493C53.5129 32.2453 54.4439 31.2892 55.4002 29.9806C56.0796 29.0496 56.7842 27.9424 57.5139 26.6591C58.2437 25.3757 59.0237 23.9036 59.8542 22.2428C60.9613 20.0536 61.9804 17.8267 62.9115 15.5619C62.2824 16.3671 61.6282 17.1473 60.9487 17.9021C60.2693 18.657 59.5396 19.3616 58.7595 20.0159C56.6709 21.8025 54.9347 22.6958 53.5507 22.6958C51.8899 22.6958 51.0595 21.7396 51.0595 19.8272C51.0595 19.1477 51.1852 18.3299 51.4369 17.3737C51.7137 16.4175 52.0911 15.3229 52.5693 14.0899C52.6448 13.8886 52.6825 13.725 52.6825 13.5992C52.6825 13.4482 52.7202 13.2972 52.7958 13.1462C53.1984 12.2656 53.8652 11.2841 54.7963 10.2021C54.9976 9.97565 55.1737 9.86241 55.3247 9.86241C55.7021 9.86241 55.8908 10.1392 55.8908 10.6928C53.45 14.2912 52.2296 17.3359 52.2296 19.8272C52.2296 20.884 52.6448 21.4125 53.4751 21.4125C54.4063 21.4125 55.7021 20.7708 57.3629 19.4875C58.5456 18.5816 59.6403 17.5625 60.6467 16.4301C61.6533 15.2726 62.5592 14.0773 63.3644 12.8442C63.9181 12.0139 64.3584 11.2841 64.6855 10.6551C65.0379 10.0008 65.2517 9.56046 65.3272 9.33398C65.453 8.95653 65.6292 8.7678 65.8556 8.7678C66.3337 8.7678 66.5728 8.96911 66.5728 9.37172C66.5728 9.57303 66.4721 9.9379 66.2709 10.4663C66.0946 10.9696 65.8682 11.5736 65.5914 12.2781C65.1887 13.3098 64.6101 14.6938 63.8552 16.4301C63.1002 18.1664 62.1566 20.2298 61.0243 22.6203C59.6151 25.5896 58.2311 28.0179 56.8723 29.9052C55.8657 31.3394 54.7585 32.5348 53.5507 33.491C52.368 34.4472 51.3111 34.9253 50.38 34.9253Z" fill="#4BC5AB"/>
<path id="Vector_3" d="M74.6465 8.13201C75.7988 8.13201 76.7429 8.58865 77.3262 9.54939C77.8278 10.3756 78.0766 11.2918 78.0766 12.2789C78.0765 13.5128 77.8284 14.7612 77.3467 16.019L77.3453 16.0234C76.8649 17.2511 76.2113 18.3863 75.3852 19.4257C74.5559 20.4691 73.6106 21.3218 72.5489 21.9752C71.4575 22.6468 70.2901 22.9918 69.0604 22.9918C67.902 22.9917 66.9025 22.6618 66.2081 21.8816C65.5288 21.1181 65.2544 20.0483 65.2544 18.8084C65.2544 17.6309 65.5357 16.4219 66.072 15.1882C66.605 13.9625 67.3105 12.8307 68.1871 11.7946C69.0623 10.7353 70.0381 9.86392 71.117 9.18956L71.1243 9.18517C72.256 8.49508 73.4335 8.13216 74.6465 8.13201ZM74.3452 10.8761C73.8283 10.8761 73.2018 11.0875 72.4525 11.6308L72.454 11.6324C71.7097 12.1906 70.9879 12.9092 70.292 13.7972C69.625 14.6802 69.0793 15.6082 68.6523 16.5807L68.6493 16.5865C68.2248 17.5301 68.0365 18.3295 68.0365 18.9971C68.0366 19.5876 68.1641 19.891 68.291 20.04C68.3933 20.16 68.5759 20.2722 68.9638 20.2828L69.192 20.255C70.0506 20.1449 70.8426 19.8374 71.5763 19.3262C72.3328 18.799 72.9896 18.1444 73.5451 17.3574L73.5466 17.353C74.1321 16.5332 74.5762 15.658 74.8791 14.726C75.1837 13.7886 75.3326 12.8726 75.3326 11.976C75.3326 11.5435 75.2152 11.3001 75.0619 11.1467C74.8883 10.973 74.6691 10.8761 74.3452 10.8761Z" fill="#2DBC9E"/>
<path id="Vector_4" d="M48.7126 21.9357C48.7495 21.9357 48.7915 21.9549 48.8384 21.9928C48.8861 22.0306 48.9302 22.078 48.9701 22.1346C49.0239 22.2095 49.0794 22.3064 49.1353 22.4243C49.1802 22.5191 49.218 22.6012 49.2479 22.6701C49.2777 22.7385 49.3007 22.793 49.3167 22.8339C49.3277 22.8618 49.3361 22.887 49.343 22.907C49.3507 22.9273 49.3546 22.9414 49.3547 22.9495C49.3547 22.9653 49.3458 22.9743 49.3269 22.9743C49.318 22.9743 49.3115 22.9659 49.3064 22.9509C49.3033 22.9419 49.2939 22.924 49.2801 22.8982C49.2671 22.8734 49.2492 22.8445 49.2274 22.8119C49.1957 22.7633 49.1604 22.7158 49.1207 22.6701C49.0809 22.6253 49.0372 22.5845 48.9905 22.5486C48.9246 22.4977 48.8724 22.4726 48.8354 22.4726C48.8025 22.4726 48.7857 22.4936 48.7857 22.5354C48.7859 22.6342 48.8354 22.7543 48.9319 22.8967C48.9319 22.9187 48.9236 22.9304 48.9086 22.9304C48.9027 22.9302 48.8959 22.9259 48.8881 22.9173C48.8513 22.8745 48.8251 22.8351 48.8091 22.8003C48.8062 22.7945 48.8048 22.7884 48.8048 22.7826C48.8048 22.7777 48.8019 22.7702 48.7988 22.7622C48.78 22.7135 48.7659 22.6697 48.755 22.632C48.7451 22.5944 48.7404 22.5622 48.7404 22.5354C48.7404 22.4596 48.7726 22.4214 48.8384 22.4214C48.8933 22.4214 48.9618 22.4573 49.0446 22.5281C49.0756 22.5541 49.1054 22.5816 49.1323 22.6115C49.1591 22.6412 49.1851 22.672 49.2099 22.7037C49.173 22.614 49.1323 22.5257 49.0885 22.439C49.0556 22.3731 49.0253 22.3142 48.9963 22.2634C48.9674 22.2125 48.9384 22.1686 48.9115 22.1317C48.8737 22.0801 48.8376 22.0416 48.8018 22.0176C48.7669 21.9937 48.7356 21.9825 48.7097 21.9825C48.6988 21.9825 48.6902 21.9869 48.6833 21.9957C48.6764 22.0047 48.6716 22.0224 48.6716 22.0484C48.6717 22.0713 48.6749 22.0933 48.6789 22.1142C48.683 22.1351 48.6881 22.1553 48.695 22.1742C48.6979 22.1819 48.7004 22.1893 48.7023 22.1961C48.7052 22.2018 48.7065 22.2068 48.7068 22.2108C48.7068 22.2265 48.6979 22.2355 48.6804 22.2356C48.6716 22.2356 48.664 22.2308 48.6599 22.2209C48.634 22.1642 48.6219 22.1048 48.6218 22.044C48.6218 21.9722 48.6518 21.9358 48.7126 21.9357Z" fill="#2DBC9E"/>
<path id="Vector_5" d="M113.207 7.55995C112.779 7.55995 112.565 7.34606 112.565 6.91828C112.565 6.79247 112.654 6.566 112.829 6.23887C113.006 5.88658 113.207 5.5343 113.434 5.18201C113.659 4.82972 113.836 4.59066 113.962 4.46484C114.389 3.98674 114.717 3.68477 114.944 3.55896C115.195 3.43314 115.422 3.37023 115.623 3.37023C116.152 3.37023 116.415 3.60928 116.415 4.08739C116.415 4.26354 116.302 4.47743 116.076 4.72906C115.874 4.95553 115.635 5.16942 115.358 5.37073C114.956 5.62237 114.704 5.82368 114.604 5.97466L113.773 7.14476C113.748 7.24542 113.685 7.34606 113.585 7.44672C113.509 7.52221 113.383 7.55995 113.207 7.55995ZM106.79 22.8468C106.086 22.8468 105.57 22.7084 105.243 22.4316C104.941 22.1548 104.79 21.7396 104.79 21.1859C104.79 20.6576 104.953 19.9404 105.281 19.0345C105.608 18.1035 106.023 17.1095 106.526 16.0527C107.055 14.9958 107.608 13.9892 108.187 13.033C108.766 12.0768 109.319 11.2968 109.848 10.6928C110.401 10.0637 110.842 9.74918 111.169 9.74918C111.622 9.74918 111.848 9.95049 111.848 10.3531C111.848 10.6047 111.634 11.0828 111.206 11.7875C110.779 12.492 110.313 13.2218 109.81 13.9767C109.609 14.2535 109.332 14.6309 108.98 15.109C108.627 15.5871 108.288 16.04 107.96 16.4678C107.633 16.8705 107.419 17.1473 107.319 17.2983C107.067 17.6757 106.803 18.2922 106.526 19.1477C106.224 20.0033 106.073 20.6576 106.073 21.1105C106.073 21.3118 106.111 21.4628 106.186 21.5635C106.287 21.6642 106.501 21.7144 106.828 21.7144C107.457 21.7144 108.162 21.5132 108.942 21.1105C109.722 20.7079 110.515 20.2046 111.32 19.6007C112.125 18.9716 112.879 18.3299 113.585 17.6757C114.314 17.0215 114.931 16.4553 115.434 15.9771C115.535 15.8765 115.686 15.8261 115.887 15.8261C116.264 15.8261 116.453 15.9771 116.453 16.2791C116.453 16.5559 116.277 16.8705 115.925 17.2227C115.245 17.9022 114.616 18.506 114.037 19.0345C113.458 19.5629 112.905 20.0285 112.376 20.4311C111.546 21.035 110.628 21.5886 109.621 22.0918C108.615 22.5952 107.671 22.8468 106.79 22.8468Z" fill="#7A9080"/>
<path id="Vector_6" d="M76.586 23.715C76.1582 23.715 75.9443 23.5137 75.9443 23.1111C75.9443 23.0859 76.0953 22.7713 76.3973 22.1674C76.6993 21.5635 77.1271 20.6702 77.6806 19.4875L79.6057 15.4487C80.3857 13.8132 80.9393 12.5172 81.2664 11.561C81.6188 10.6048 81.7949 9.98828 81.7949 9.71147C81.7949 9.30886 81.9962 9.10755 82.3988 9.10755C82.8014 9.10755 83.0027 9.30886 83.0027 9.71147C83.0027 10.0386 82.8895 10.5545 82.663 11.259C82.4617 11.9385 82.122 12.8192 81.6439 13.9012L79.7189 18.2796C84.978 11.6365 88.9414 8.3149 91.6086 8.3149C92.1119 8.3149 92.5019 8.52879 92.7787 8.95657C93.0555 9.35919 93.1939 9.81213 93.1939 10.3154C93.1939 11.5233 92.3258 13.6244 90.5895 16.6188C91.9232 15.2601 93.2694 13.9012 94.6283 12.5424C96.0123 11.1584 97.3963 9.79955 98.7803 8.46588C99.1325 8.13876 99.422 7.9752 99.6484 7.9752C99.9504 7.9752 100.202 8.12618 100.403 8.42813C100.605 8.70494 100.705 9.0069 100.705 9.33403C100.705 9.58566 100.592 9.90021 100.366 10.2777C100.038 10.8313 99.7365 11.4981 99.4596 12.2782C99.1829 13.0331 98.8683 13.8886 98.5161 14.8448C98.1134 15.9268 97.8241 16.8705 97.6479 17.6757C97.4717 18.481 97.3836 19.1352 97.3836 19.6385C97.3836 20.2675 97.5346 20.7331 97.8366 21.0351C98.1386 21.3119 98.4405 21.4503 98.7425 21.4503C99.271 21.4503 99.8497 21.3119 100.479 21.0351C101.108 20.7583 101.624 20.4814 102.026 20.2046C102.832 19.6762 103.675 19.022 104.555 18.242C105.436 17.4366 106.279 16.6314 107.084 15.8262C107.185 15.7255 107.336 15.6753 107.537 15.6753C107.915 15.6753 108.103 15.8262 108.103 16.1282C108.103 16.405 107.927 16.7195 107.575 17.0718C106.568 18.0783 105.662 18.9465 104.857 19.6762C104.052 20.3809 103.284 20.9595 102.555 21.4125C102.077 21.6893 101.498 21.9788 100.818 22.2807C100.139 22.5826 99.4093 22.7336 98.6293 22.7336C97.8995 22.7336 97.2831 22.5071 96.7797 22.0542C96.3016 21.6012 96.0626 20.6324 96.0626 19.1479C96.0626 18.5691 96.1633 17.8896 96.3645 17.1095C96.5658 16.3043 96.8678 15.4111 97.2704 14.4296L99.271 9.67373L93.8734 15.1091C93.2443 15.7382 92.7284 16.2666 92.3258 16.6944C91.9232 17.1222 91.596 17.4744 91.3444 17.7512C90.8664 18.2545 90.4386 18.7452 90.061 19.2233C89.7088 19.7014 89.4068 20.1166 89.1551 20.4689C88.979 20.7456 88.7777 20.8841 88.5513 20.8841C88.1235 20.8841 87.9096 20.708 87.9096 20.3556C87.9096 19.5755 88.6141 17.7764 90.0234 14.9581C91.4325 12.1397 92.137 10.4538 92.137 9.90021C92.137 9.64857 91.8603 9.52275 91.3067 9.52275C89.0671 9.52275 85.0787 13.1841 79.3414 20.5066C78.8633 21.1861 78.0707 22.2052 76.9634 23.564C76.888 23.6647 76.7622 23.715 76.586 23.715Z" fill="#7A9080"/>
<path id="Vector_7" opacity="0.85" d="M2.35844 0.00144768H0.58961C0.263977 0.00144768 0 0.265425 0 0.591058V37.1469C0 37.4725 0.263977 37.7365 0.58961 37.7365H2.35844C2.68407 37.7365 2.94805 37.4725 2.94805 37.1469V0.591058C2.94805 0.265425 2.68407 0.00144768 2.35844 0.00144768Z" fill="#2DBC9E"/>
<path id="Vector_8" opacity="0.85" d="M16.7711 0.00144768H15.0022C14.6767 0.00144768 14.4127 0.265425 14.4127 0.591058V37.1469C14.4127 37.4725 14.6767 37.7365 15.0022 37.7365H16.7711C17.0968 37.7365 17.3607 37.4725 17.3607 37.1469V0.591058C17.3607 0.265425 17.0968 0.00144768 16.7711 0.00144768Z" fill="#2DBC9E"/>
<path id="Vector_9" opacity="0.85" d="M29.3496 0.00144768H26.991C26.5569 0.00144768 26.205 0.267259 26.205 0.595152V37.4049C26.205 37.7327 26.5569 37.9986 26.991 37.9986H29.3496C29.7837 37.9986 30.1356 37.7327 30.1356 37.4049V0.595152C30.1356 0.267259 29.7837 0.00144768 29.3496 0.00144768Z" fill="#2DBC9E"/>
<path id="Vector_10" opacity="0.85" d="M39.0453 0.00144768H37.2765C36.9509 0.00144768 36.6869 0.265425 36.6869 0.591058V37.1469C36.6869 37.4725 36.9509 37.7365 37.2765 37.7365H39.0453C39.3709 37.7365 39.6349 37.4725 39.6349 37.1469V0.591058C39.6349 0.265425 39.3709 0.00144768 39.0453 0.00144768Z" fill="#2DBC9E"/>
<path id="Vector_11" opacity="0.85" d="M4.87708 0.00144768H4.29474C4.09374 0.00144768 3.93079 0.258092 3.93079 0.57468V36.1151C3.93079 36.4316 4.09374 36.6883 4.29474 36.6883H4.87708C5.07809 36.6883 5.24104 36.4316 5.24104 36.1151V0.57468C5.24104 0.258092 5.07809 0.00144768 4.87708 0.00144768Z" fill="#2DBC9E"/>
<path id="Vector_12" opacity="0.85" d="M19.2896 0.00144768H18.7074C18.5063 0.00144768 18.3434 0.258092 18.3434 0.57468V36.1151C18.3434 36.4316 18.5063 36.6883 18.7074 36.6883H19.2896C19.4907 36.6883 19.6536 36.4316 19.6536 36.1151V0.57468C19.6536 0.258092 19.4907 0.00144768 19.2896 0.00144768Z" fill="#2DBC9E"/>
<path id="Vector_13" opacity="0.85" d="M10.118 0.00144768H9.53571C9.3347 0.00144768 9.17175 0.258092 9.17175 0.57468V36.1151C9.17175 36.4316 9.3347 36.6883 9.53571 36.6883H10.118C10.3191 36.6883 10.482 36.4316 10.482 36.1151V0.57468C10.482 0.258092 10.3191 0.00144768 10.118 0.00144768Z" fill="#2DBC9E"/>
<path id="Vector_14" opacity="0.85" d="M21.9102 0.00144768H21.3279C21.1268 0.00144768 20.9639 0.258092 20.9639 0.57468V36.1151C20.9639 36.4316 21.1268 36.6883 21.3279 36.6883H21.9102C22.1112 36.6883 22.2741 36.4316 22.2741 36.1151V0.57468C22.2741 0.258092 22.1112 0.00144768 21.9102 0.00144768Z" fill="#2DBC9E"/>
<path id="Vector_15" opacity="0.85" d="M32.3922 0.00144768H31.8098C31.6087 0.00144768 31.4458 0.258092 31.4458 0.57468V36.1151C31.4458 36.4316 31.6087 36.6883 31.8098 36.6883H32.3922C32.5931 36.6883 32.756 36.4316 32.756 36.1151V0.57468C32.756 0.258092 32.5931 0.00144768 32.3922 0.00144768Z" fill="#2DBC9E"/>
<path id="Vector_16" opacity="0.85" d="M7.49755 0.00144768H6.91523C6.71421 0.00144768 6.55127 0.258092 6.55127 0.57468V36.1151C6.55127 36.4316 6.71421 36.6883 6.91523 36.6883H7.49755C7.69856 36.6883 7.86151 36.4316 7.86151 36.1151V0.57468C7.86151 0.258092 7.69856 0.00144768 7.49755 0.00144768Z" fill="#2DBC9E"/>
<path id="Vector_17" opacity="0.85" d="M12.7386 0.00144768H12.1562C11.9552 0.00144768 11.7922 0.258092 11.7922 0.57468V36.1151C11.7922 36.4316 11.9552 36.6883 12.1562 36.6883H12.7386C12.9395 36.6883 13.1025 36.4316 13.1025 36.1151V0.57468C13.1025 0.258092 12.9395 0.00144768 12.7386 0.00144768Z" fill="#2DBC9E"/>
<path id="Vector_18" opacity="0.85" d="M24.5307 0.00144768H23.9484C23.7474 0.00144768 23.5845 0.258092 23.5845 0.57468V36.1151C23.5845 36.4316 23.7474 36.6883 23.9484 36.6883H24.5307C24.7318 36.6883 24.8947 36.4316 24.8947 36.1151V0.57468C24.8947 0.258092 24.7318 0.00144768 24.5307 0.00144768Z" fill="#2DBC9E"/>
<path id="Vector_19" opacity="0.85" d="M35.0126 0.00144768H34.4303C34.2293 0.00144768 34.0664 0.258092 34.0664 0.57468V36.1151C34.0664 36.4316 34.2293 36.6883 34.4303 36.6883H35.0126C35.2137 36.6883 35.3766 36.4316 35.3766 36.1151V0.57468C35.3766 0.258092 35.2137 0.00144768 35.0126 0.00144768Z" fill="#2DBC9E"/>
<path id="Vector_20" d="M5.50305 18.8689L14.9368 29.4819L33.8044 8.25595" stroke="white" stroke-width="4.47025" stroke-linecap="round" stroke-linejoin="round"/>
<path id="Vector_21" d="M5.24097 19L14.8495 29.4819L34.0664 7.86292" stroke="#F5A623" stroke-width="2.90566" stroke-linecap="round" stroke-linejoin="round"/>
</g>
</g>
</g>
</g>
<defs>
<clipPath id="clip0_8_2">
<rect width="447" height="1161" fill="white" transform="translate(-20 -48)"/>
</clipPath>
<clipPath id="clip1_8_2">
<rect width="117.344" height="38" fill="white"/>
</clipPath>
</defs>
</svg>
